PathFileType	4	(X/Y/Z)	./resultDataOpenSim/trcMotMarkerGrf/sub06/qtm-14-05.trc
DataRate	CameraRate	NumFrames	NumMarkers	Units	OrigDataRate	OrigDataStartFrame	OrigNumFrames
250.000000	250.000000	14	24	m	250.000000	68	543
Frame#	Time	L.Toe.Tip			R.Toe.Tip			L.Ankle.Lat			R.Ankle.Lat			L.Ankle.Med			R.Ankle.Med			L.Heel			R.Heel			L.Knee.Lat			R.Knee.Lat			L.Knee.Med			R.Knee.Med			L.Thigh.Upper			R.Thigh.Upper			L.ASIS			R.ASIS			V.Sacral			L.Acromium			R.Acromium			C7			L.Elbow			R.Elbow			L.Wrist.Lat			R.Wrist.Lat
		X1	Y1	Z1	X2	Y2	Z2	X3	Y3	Z3	X4	Y4	Z4	X5	Y5	Z5	X6	Y6	Z6	X7	Y7	Z7	X8	Y8	Z8	X9	Y9	Z9	X10	Y10	Z10	X11	Y11	Z11	X12	Y12	Z12	X13	Y13	Z13	X14	Y14	Z14	X15	Y15	Z15	X16	Y16	Z16	X17	Y17	Z17	X18	Y18	Z18	X19	Y19	Z19	X20	Y20	Z20	X21	Y21	Z21	X22	Y22	Z22	X23	Y23	Z23	X24	Y24	Z24

68	0.268	-1.3232408	0.078710902	-0.077079909	-0.77409665	0.03711341	0.10327156	-1.3348497	0.208586	-0.091551	-0.90818119	0.061268361	0.12686124	-1.3115137	0.20743079	-0.011267888	-0.89177681	0.080899839	0.040882272	-1.3838606	0.25753203	-0.034968565	-0.96473153	0.037739343	0.066203785	-1.0028743	0.38356555	-0.13100369	-0.85549224	0.44613412	0.15082564	-0.99592014	0.37695248	-0.0077542033	-0.88986806	0.43184571	0.027006153	-1.0325943	0.77597726	-0.13747061	-0.98818398	0.79925474	0.20314452	-0.95316839	0.83130247	-0.10509646	-0.91232954	0.85152061	0.13544449	-1.121948	0.91604341	0.042604374	-1.0005849	1.3302067	-0.1355502	-0.9899378	1.2964145	0.22688798	-1.0752556	1.3509018	0.049945504	-1.0015552	1.0043459	-0.20670029	-1.0938658	0.99946744	0.28441286	-0.79272795	0.87314199	-0.16581848	-1.0048487	0.77864776	0.3175539
69	0.272	-1.3079714	0.078993622	-0.076482541	-0.77420543	0.037159312	0.10340527	-1.3214593	0.20853752	-0.090696542	-0.90834595	0.061248073	0.12698246	-1.2979932	0.20770173	-0.010445602	-0.89186629	0.081035651	0.041071182	-1.3711156	0.25672049	-0.033720563	-0.9647901	0.037789548	0.066249156	-0.99116929	0.3856082	-0.13079362	-0.85422119	0.44611612	0.15114667	-0.98374173	0.37917248	-0.0074313658	-0.88846255	0.43208788	0.027395905	-1.0261962	0.77800538	-0.13694222	-0.98480778	0.80021507	0.20326439	-0.94724316	0.83327016	-0.10481656	-0.90700277	0.85299751	0.13642878	-1.1173489	0.91820716	0.042316678	-0.99530814	1.3319971	-0.13531042	-0.98425536	1.2983947	0.22705578	-1.0697389	1.3526419	0.050187034	-0.99796426	1.0062489	-0.20619731	-1.0852363	1.0003653	0.28539059	-0.79095758	0.87211444	-0.16657719	-0.99368743	0.78069996	0.31794427
70	0.276	-1.2924348	0.07911539	-0.075965429	-0.77430523	0.037207122	0.10351572	-1.3080685	0.20824335	-0.089773013	-0.90849781	0.061229903	0.12709511	-1.2843337	0.20774372	-0.0096364491	-0.89194379	0.081175112	0.041247923	-1.3582456	0.25572567	-0.032575648	-0.96484929	0.037839295	0.066290384	-0.9794651	0.38775873	-0.1305344	-0.85318983	0.44611625	0.15130672	-0.97177398	0.38147812	-0.0068993832	-0.88717928	0.43236076	0.027762509	-1.0198269	0.78007281	-0.13644965	-0.98131221	0.8011558	0.20340739	-0.94128093	0.83530349	-0.10449175	-0.90148449	0.8545377	0.13745374	-1.1119331	0.91978166	0.042524506	-0.99003059	1.3338104	-0.13505544	-0.97859536	1.3003971	0.22721035	-1.064235	1.3543886	0.050427111	-0.99445239	1.0082451	-0.20565426	-1.0767148	1.0013498	0.28617813	-0.7894704	0.87110924	-0.16745442	-0.98238158	0.78291578	0.31827282
71	0.28	-1.276592	0.079107665	-0.075563574	-0.77440191	0.037252929	0.10360943	-1.2945998	0.20772651	-0.088816001	-0.90864341	0.06121281	0.12719463	-1.2705344	0.20756246	-0.0088464141	-0.89200278	0.081310811	0.041410091	-1.3453117	0.25452561	-0.031532273	-0.96491237	0.037889843	0.066331406	-0.96773433	0.39000625	-0.13024039	-0.85228159	0.44612198	0.15139877	-0.96011259	0.38388817	-0.0061537015	-0.88599398	0.43266077	0.028102306	-1.0134704	0.78214918	-0.13597919	-0.97686753	0.80222297	0.20381292	-0.93527486	0.83742467	-0.10405934	-0.89565699	0.85614671	0.13853751	-1.1060688	0.9210222	0.043050566	-0.98474829	1.3356387	-0.1347987	-0.97295359	1.3024203	0.22735811	-1.0587371	1.3561282	0.050667141	-0.99110651	1.0103504	-0.20531321	-1.0683468	1.002414	0.28674956	-0.78806081	0.87015822	-0.16837166	-0.97099674	0.78526492	0.31854839
72	0.284	-1.2605418	0.078964491	-0.075195573	-0.77449996	0.037292985	0.10369369	-1.281008	0.20699774	-0.087863533	-0.9087886	0.061199481	0.12728084	-1.2567167	0.20716528	-0.0080306877	-0.89203892	0.081438858	0.041555092	-1.3323586	0.25307685	-0.030460242	-0.96498292	0.037942229	0.066374316	-0.95604527	0.39233363	-0.12991712	-0.8513142	0.44612661	0.15152805	-0.94860681	0.3863827	-0.0053322545	-0.88491299	0.43296468	0.028386408	-1.0071129	0.78421679	-0.13551865	-0.97156699	0.80343723	0.20444521	-0.92924737	0.83961443	-0.10354451	-0.88963778	0.85779577	0.13965155	-1.1000636	0.92219889	0.043652092	-0.97945855	1.3374741	-0.13454928	-0.9673258	1.3044726	0.22750072	-1.0532486	1.3578534	0.050908074	-0.98794229	1.0125374	-0.20522966	-1.0600962	1.0035239	0.28720019	-0.78660519	0.86927481	-0.16928299	-0.95957568	0.78772202	0.31878005
73	0.288	-1.2445192	0.078624649	-0.074635189	-0.77460168	0.037326253	0.10377193	-1.2672703	0.20607848	-0.086926973	-0.90893902	0.061194181	0.12735688	-1.2429586	0.20657769	-0.0071291887	-0.89206838	0.081560822	0.041683398	-1.3194095	0.25136409	-0.029289122	-0.96506256	0.037997145	0.066418645	-0.9444917	0.39472449	-0.12956252	-0.85026893	0.4461433	0.15173459	-0.93698155	0.38892284	-0.0045992078	-0.88400357	0.43324296	0.028588572	-1.0007479	0.78627892	-0.13508278	-0.96613017	0.80470151	0.20507154	-0.92319437	0.84184278	-0.10296783	-0.88386939	0.85942663	0.14069742	-1.0939688	0.92343463	0.04419162	-0.97416015	1.3393058	-0.13430112	-0.96170788	1.3065514	0.22763325	-1.0477767	1.359567	0.051148947	-0.9848448	1.0147397	-0.20517443	-1.0519006	1.0046505	0.2876238	-0.78513125	0.8684503	-0.17020948	-0.94813519	0.79027416	0.31897035
74	0.292	-1.2286116	0.078055375	-0.073763242	-0.77470711	0.037353259	0.10384068	-1.2533695	0.20498867	-0.086002171	-0.90909552	0.061200573	0.1274268	-1.2290807	0.20584278	-0.0061521208	-0.89211795	0.081681297	0.041797192	-1.306399	0.24935466	-0.028138865	-0.9651508	0.038051408	0.066464813	-0.93306779	0.39717226	-0.12916836	-0.84935716	0.4461997	0.15201234	-0.92513833	0.3915048	-0.0039925476	-0.88331045	0.43347998	0.028696589	-0.99437826	0.78834159	-0.13472217	-0.96101493	0.80592932	0.20554788	-0.91707231	0.84409468	-0.10230136	-0.8787055	0.86100317	0.14158367	-1.0876312	0.92472442	0.044589734	-0.96885359	1.3411295	-0.1340483	-0.95609509	1.3086366	0.22774991	-1.0423214	1.3612703	0.051387564	-0.98165277	1.0169197	-0.2048928	-1.0437115	1.0057861	0.28806698	-0.7837021	0.86768027	-0.17118746	-0.93668229	0.79291292	0.31911802
75	0.296	-1.2125815	0.077319927	-0.072761284	-0.77481414	0.037374386	0.10389095	-1.2393034	0.20372828	-0.085096655	-0.90925044	0.061220634	0.12749386	-1.2147669	0.20498357	-0.0051947452	-0.89219877	0.081805362	0.041898594	-1.2932206	0.24700627	-0.027172634	-0.96524709	0.038095312	0.066516729	-0.9217055	0.3996795	-0.12872845	-0.84882079	0.44630385	0.15232039	-0.91319428	0.39415599	-0.0034492347	-0.88282105	0.43368372	0.028720613	-0.98801862	0.79039634	-0.13450533	-0.95619023	0.80710766	0.2059093	-0.910872	0.84635402	-0.10154617	-0.8738928	0.86255165	0.1423433	-1.0808593	0.92600991	0.044735425	-0.96354102	1.3429452	-0.13379726	-0.95048324	1.3107049	0.22785072	-1.036876	1.3629483	0.051624194	-0.97827596	1.0190945	-0.20433462	-1.035519	1.0069389	0.28853265	-0.78234405	0.86696553	-0.1722244	-0.92522341	0.79563087	0.31922214
76	0.3	-1.1961421	0.076503693	-0.071882425	-0.77491901	0.037390802	0.10391496	-1.2250986	0.20228566	-0.084224354	-0.90938789	0.061253432	0.12755784	-1.2000071	0.20396695	-0.0043307072	-0.89230563	0.081935295	0.041990582	-1.2798843	0.24434632	-0.026331508	-0.96535225	0.038114466	0.066581772	-0.91037073	0.40224688	-0.12824654	-0.84863446	0.44642034	0.15255875	-0.90132397	0.39689218	-0.0029113347	-0.88249135	0.43388271	0.028702505	-0.98167936	0.7924325	-0.13445718	-0.95142599	0.80827254	0.20627524	-0.90470094	0.84858162	-0.10082399	-0.86896309	0.86410299	0.14308401	-1.0737574	0.92727169	0.044550078	-0.95822273	1.3447396	-0.13355728	-0.94487613	1.3127498	0.22794153	-1.0314347	1.3645814	0.051858926	-0.97469242	1.0212868	-0.20357979	-1.0273649	1.0081081	0.28896248	-0.78105571	0.86630157	-0.17330383	-0.91376924	0.79842531	0.3192828
77	0.304	-1.1792266	0.075641248	-0.071190273	-0.77501696	0.037405441	0.10391306	-1.2108089	0.20064957	-0.083370015	-0.90949588	0.061289869	0.12761271	-1.1851781	0.20274436	-0.0035245351	-0.89243208	0.082067767	0.042075901	-1.2665057	0.24144211	-0.025411277	-0.96546723	0.038101798	0.06666436	-0.89906777	0.40486507	-0.12773381	-0.84846761	0.44651789	0.15266018	-0.88968373	0.39969889	-0.0023697031	-0.88222615	0.43411125	0.028697116	-0.97533946	0.79445623	-0.13445263	-0.94654848	0.80945813	0.20673288	-0.89871989	0.85073615	-0.10028329	-0.86396881	0.86561659	0.14384291	-1.0668133	0.92854737	0.044133469	-0.95289901	1.3464943	-0.13332765	-0.93928723	1.3147827	0.2280301	-1.0259978	1.3661682	0.052088212	-0.97092535	1.0234869	-0.20270645	-1.0193408	1.0092669	0.28923766	-0.77983149	0.865682	-0.17441369	-0.90232876	0.80129807	0.31930091
78	0.308	-1.161922	0.074740686	-0.070613417	-0.77510392	0.037422342	0.10389382	-1.1964916	0.19881088	-0.08249009	-0.90959652	0.061302498	0.12764766	-1.1705511	0.20132334	-0.0027004567	-0.8925698	0.082198238	0.042154508	-1.253126	0.23830483	-0.024391521	-0.96558951	0.038073671	0.066757304	-0.88781057	0.40751349	-0.12720016	-0.84801828	0.44661751	0.15268365	-0.87836258	0.40255029	-0.0018433894	-0.88193867	0.43437443	0.028724105	-0.96895259	0.7964775	-0.13424841	-0.94151734	0.81066773	0.20724759	-0.89298603	0.85280796	-0.099926742	-0.85920904	0.86704451	0.14458816	-1.060471	0.9298531	0.043704679	-0.94757463	1.3482091	-0.13310045	-0.93372445	1.3168112	0.22812151	-1.0205692	1.3677195	0.052307326	-0.96711725	1.0256779	-0.20182819	-1.0115374	1.0103885	0.28929241	-0.77866411	0.86510418	-0.17555431	-0.89089599	0.80424684	0.31927845
79	0.312	-1.1443104	0.073815385	-0.070089747	-0.77518038	0.037445953	0.10386932	-1.1821744	0.19676492	-0.081559893	-0.90974899	0.061257313	0.12765512	-1.1560526	0.19974927	-0.0018401961	-0.89270465	0.082327254	0.042225899	-1.2396818	0.23490274	-0.023428348	-0.96571295	0.038058826	0.066846479	-0.87660658	0.41016804	-0.12664737	-0.84728329	0.44674877	0.15271887	-0.86731626	0.40544569	-0.0013277762	-0.88172492	0.43461775	0.028752413	-0.9624998	0.79848206	-0.13377523	-0.93636337	0.81188723	0.20768787	-0.88739637	0.85482363	-0.099623599	-0.85456325	0.86845082	0.1453096	-1.0547628	0.93115794	0.043384765	-0.94225351	1.3498897	-0.13287303	-0.92818101	1.3188217	0.2282117	-1.0151494	1.3692372	0.052512496	-0.96348855	1.0278614	-0.20109436	-1.0039617	1.0114965	0.28927919	-0.77754131	0.86456802	-0.17672638	-0.87946082	0.80726125	0.31921846
80	0.316	-1.1264057	0.072890389	-0.069599885	-0.77525233	0.037479803	0.10385263	-1.1678119	0.19452857	-0.080609161	-0.90997793	0.061160653	0.12764491	-1.1415318	0.19803612	-0.0009602973	-0.89283303	0.082459008	0.042294928	-1.22612	0.23122431	-0.022572573	-0.96583224	0.038067892	0.066923763	-0.8654569	0.41281382	-0.12606961	-0.84649077	0.44689572	0.15276911	-0.85641088	0.40841402	-0.00078253516	-0.88177255	0.4347759	0.02875476	-0.95600022	0.80043802	-0.13329394	-0.93114898	0.81309103	0.20797285	-0.8817553	0.85683101	-0.099238532	-0.84960283	0.86996257	0.14603547	-1.0494341	0.93244965	0.043160719	-0.93693234	1.3515304	-0.13265175	-0.9226489	1.3207909	0.2282873	-1.0097369	1.3707115	0.052699238	-0.96012496	1.0300388	-0.20055294	-0.99655752	1.0126679	0.28950654	-0.7764516	0.86407053	-0.17792789	-0.86802636	0.81033133	0.31912418
81	0.32	-1.1081926	0.071990391	-0.069129709	-0.77532643	0.037524975	0.10385797	-1.1533061	0.19213617	-0.079688122	-0.91022729	0.061068712	0.1276429	-1.1269485	0.19616239	-6.115243e-05	-0.89296683	0.082596607	0.042372644	-1.2124369	0.22728095	-0.021724546	-0.96594291	0.038093666	0.066986729	-0.85437128	0.41544846	-0.12545546	-0.84589347	0.44701245	0.15278043	-0.84554604	0.41148193	-0.0001687832	-0.8819895	0.43487538	0.028759926	-0.94944912	0.80232417	-0.1331521	-0.92594984	0.81423409	0.20816157	-0.87589021	0.85887011	-0.098696013	-0.84413798	0.87160301	0.14678735	-1.0442058	0.9337484	0.043005461	-0.93160395	1.3531212	-0.13244453	-0.91712709	1.3227085	0.2283394	-1.0043315	1.3721309	0.052861379	-0.9569197	1.0321948	-0.20012489	-0.98927444	1.0139585	0.29012834	-0.77539085	0.8636022	-0.17915958	-0.8565983	0.81345432	0.31899912
